<svg xmlns="http://www.w3.org/2000/svg" width="100" height="100" fill-rule="evenodd" clip-rule="evenodd" image-rendering="optimizeQuality" shape-rendering="geometricPrecision" text-rendering="geometricPrecision" viewBox="0 0 201 201"><rect width="201" height="201" fill="#379ad0" rx="19" ry="19"/><polygon fill="#fefefe" points="39 102 39 162 68 162 68 97 68 80 39 80"/><path fill="#fefefe" d="M54 39c-8 0-15 7-15 15 0 7 7 14 15 14 7 0 14-7 14-14 0-8-7-15-14-15zM161 105c-2-15-9-25-30-25-12 0-20 5-24 11l0 0 0-11-23 0 0 16 0 66 24 0 0-41c0-10 2-21 15-21 13 0 14 13 14 22l0 40 25 0 0-45 0 0c0-4 0-8-1-12z"/></svg>